<svg width="256px" height="256px" viewBox="0 0 10.24 10.24" xmlns="http://www.w3.org/2000/svg"><title>file_type_node</title><path d="M5.12 9.6a0.688 0.688 0 0 1 -0.344 -0.092L3.68 8.859c-0.164 -0.092 -0.084 -0.124 -0.03 -0.143a2.176 2.176 0 0 0 0.496 -0.224 0.083 0.083 0 0 1 0.082 0.006l0.842 0.5a0.109 0.109 0 0 0 0.102 0l3.283 -1.895a0.102 0.102 0 0 0 0.05 -0.089V3.224a0.106 0.106 0 0 0 -0.051 -0.091l-3.283 -1.893a0.102 0.102 0 0 0 -0.101 0L1.788 3.134a0.106 0.106 0 0 0 -0.052 0.09v3.789a0.102 0.102 0 0 0 0.052 0.088L2.688 7.62c0.488 0.244 0.787 -0.044 0.787 -0.332V3.547a0.096 0.096 0 0 1 0.096 -0.096h0.416a0.096 0.096 0 0 1 0.096 0.096v3.741c0 0.651 -0.355 1.024 -0.972 1.024a1.408 1.408 0 0 1 -0.756 -0.205l-0.863 -0.495a0.694 0.694 0 0 1 -0.344 -0.599V3.224A0.691 0.691 0 0 1 1.492 2.624l3.284 -1.896a0.72 0.72 0 0 1 0.69 0L8.748 2.624a0.694 0.694 0 0 1 0.345 0.598v3.791a0.694 0.694 0 0 1 -0.345 0.599l-3.283 1.896A0.688 0.688 0 0 1 5.12 9.6" style="fill:#83cd29"/><path d="M4.497 5.745a0.096 0.096 0 0 1 0.096 -0.096h0.425a0.096 0.096 0 0 1 0.094 0.08c0.064 0.432 0.256 0.65 1.124 0.65 0.692 0 0.986 -0.156 0.986 -0.524 0 -0.212 -0.084 -0.369 -1.158 -0.474 -0.899 -0.089 -1.454 -0.288 -1.454 -1.006 0 -0.662 0.558 -1.058 1.494 -1.058 1.052 0 1.572 0.365 1.638 1.148a0.096 0.096 0 0 1 -0.094 0.103h-0.428a0.096 0.096 0 0 1 -0.092 -0.074c-0.102 -0.455 -0.352 -0.6 -1.024 -0.6 -0.755 0 -0.843 0.263 -0.843 0.46 0 0.239 0.104 0.308 1.123 0.443 1.009 0.133 1.488 0.322 1.488 1.031 0 0.716 -0.596 1.125 -1.637 1.125 -1.438 0.002 -1.74 -0.658 -1.74 -1.211" style="fill:#83cd29"/></svg>