<svg width="256px" height="256px" viewBox="0 0 10.24 10.24" fill="none" xmlns="http://www.w3.org/2000/svg"><path cx="16" cy="16" r="14" fill="#8892BF" d="M9.6 5.12A4.48 4.48 0 0 1 5.12 9.6A4.48 4.48 0 0 1 0.64 5.12A4.48 4.48 0 0 1 9.6 5.12z"/><path d="M4.621 3.2h0.538l-0.152 0.808h0.483q0.397 0.009 0.592 0.178 0.199 0.169 0.117 0.643l-0.261 1.408H5.392l0.249 -1.345q0.039 -0.211 -0.023 -0.3 -0.062 -0.089 -0.269 -0.089l-0.433 -0.004 -0.319 1.738h-0.538z" fill="white"/><path fill-rule="evenodd" clip-rule="evenodd" d="M2.157 4.008h1.044q0.46 0.004 0.666 0.288 0.207 0.283 0.136 0.774a1.6 1.6 0 0 1 -0.121 0.44q-0.09 0.216 -0.249 0.389 -0.195 0.22 -0.417 0.279a1.792 1.792 0 0 1 -0.46 0.059H2.29L2.141 7.04H1.6zm0.222 1.751 0.233 -1.265h0.079q0.043 0 0.09 -0.004 0.312 -0.004 0.518 0.063 0.21 0.068 0.14 0.512 -0.085 0.528 -0.335 0.617 -0.249 0.084 -0.623 0.08h-0.054a0.32 0.32 0 0 1 -0.047 -0.004" fill="white"/><path fill-rule="evenodd" clip-rule="evenodd" d="M7.82 4.008h-1.044L6.219 7.04h0.541l0.148 -0.804h0.467a1.792 1.792 0 0 0 0.46 -0.059q0.222 -0.059 0.417 -0.279 0.16 -0.174 0.249 -0.389 0.093 -0.216 0.121 -0.44 0.07 -0.491 -0.136 -0.774 -0.206 -0.283 -0.666 -0.288m-0.589 0.486 -0.233 1.265a0.32 0.32 0 0 0 0.047 0.004h0.054q0.374 0.004 0.623 -0.08 0.25 -0.089 0.335 -0.618 0.07 -0.444 -0.14 -0.512 -0.206 -0.067 -0.518 -0.063a0.96 0.96 0 0 1 -0.09 0.004z" fill="white"/></svg>