<svg width="256px" height="256px" viewBox="0 0 10.24 10.24" fill="none" xmlns="http://www.w3.org/2000/svg"><path d="M5.977 5.112c0 -0.459 -0.384 -0.831 -0.857 -0.831 -0.474 0 -0.857 0.372 -0.857 0.831 0 0.459 0.384 0.831 0.857 0.831 0.474 0 0.857 -0.372 0.857 -0.831" fill="#53C1DE"/><path fill-rule="evenodd" clip-rule="evenodd" d="M7.904 3.569c0.181 -0.714 0.409 -2.036 -0.394 -2.484 -0.798 -0.446 -1.837 0.409 -2.386 0.923 -0.547 -0.508 -1.615 -1.36 -2.417 -0.91 -0.798 0.448 -0.552 1.749 -0.367 2.467 -0.745 0.205 -2.021 0.646 -2.021 1.549 0 0.9 1.275 1.38 2.015 1.585 -0.186 0.722 -0.42 2.004 0.38 2.451 0.804 0.45 1.869 -0.382 2.423 -0.901 0.552 0.516 1.581 1.354 2.38 0.906 0.801 -0.45 0.593 -1.755 0.407 -2.477 0.717 -0.205 1.995 -0.675 1.995 -1.564 0 -0.894 -1.283 -1.339 -2.016 -1.543m-0.091 2.724a9.28 9.28 0 0 0 -0.486 -1.179 9.28 9.28 0 0 0 0.467 -1.162c0.537 0.151 1.716 0.496 1.716 1.16 0 0.67 -1.131 1.019 -1.697 1.181m-0.501 2.515c-0.596 0.334 -1.481 -0.466 -1.889 -0.846a9.28 9.28 0 0 0 0.804 -0.991c0.464 -0.04 0.903 -0.105 1.3 -0.194 0.13 0.51 0.382 1.695 -0.216 2.031m-4.392 -0.005c-0.596 -0.333 -0.324 -1.477 -0.187 -2.009 0.393 0.084 0.828 0.145 1.293 0.182 0.266 0.362 0.544 0.695 0.824 0.987 -0.347 0.325 -1.332 1.175 -1.931 0.84M0.73 5.112c0 -0.673 1.172 -1.015 1.721 -1.166a9.28 9.28 0 0 0 0.468 1.175 9.6 9.6 0 0 0 -0.474 1.192c-0.524 -0.145 -1.715 -0.529 -1.715 -1.202M2.913 1.441c0.598 -0.336 1.526 0.482 1.924 0.85a9.6 9.6 0 0 0 -0.818 0.981c-0.451 0.041 -0.884 0.106 -1.281 0.193 -0.149 -0.579 -0.423 -1.689 0.175 -2.024m3.608 2.263c0.306 0.037 0.6 0.087 0.876 0.148 -0.083 0.257 -0.186 0.526 -0.307 0.801a13.12 13.12 0 0 0 -0.568 -0.95m-1.397 -1.129c0.189 0.199 0.379 0.42 0.565 0.661a12.48 12.48 0 0 0 -1.135 0 8.96 8.96 0 0 1 0.57 -0.661m-1.97 2.079a8.64 8.64 0 0 1 -0.305 -0.805 9.6 9.6 0 0 1 0.87 -0.145 11.52 11.52 0 0 0 -0.565 0.95m0.574 1.895a8.96 8.96 0 0 1 -0.884 -0.138c0.084 -0.266 0.189 -0.541 0.311 -0.822a11.52 11.52 0 0 0 0.573 0.96m1.408 1.128a8.96 8.96 0 0 1 -0.578 -0.67q0.571 0.022 1.141 -0.002a8.64 8.64 0 0 1 -0.564 0.672m1.957 -2.102c0.128 0.284 0.236 0.558 0.322 0.819a8.96 8.96 0 0 1 -0.895 0.148c0.204 -0.314 0.396 -0.637 0.573 -0.966m-1.094 1.015a13.28 13.28 0 0 1 -1.748 0.003 11.2 11.2 0 0 1 -0.879 -1.471 11.2 11.2 0 0 1 0.874 -1.469c0.582 -0.043 1.168 -0.043 1.75 0a12.48 12.48 0 0 1 0.876 1.463 12.48 12.48 0 0 1 -0.873 1.474M7.306 1.429c0.598 0.335 0.332 1.523 0.202 2.04a10.24 10.24 0 0 0 -1.284 -0.197 9.28 9.28 0 0 0 -0.812 -0.982c0.403 -0.376 1.301 -1.193 1.894 -0.861" fill="#53C1DE"/></svg>